<mxfile host="app.diagrams.net" modified="2021-01-12T08:17:58.229Z" agent="5.0 (Windows NT 10.0; Win64; x64) AppleWebKit/537.36 (KHTML, like Gecko) Chrome/87.0.4280.141 Safari/537.36" etag="c9uCqfU8NBrKPKCiYMtX" version="14.1.8" type="github" pages="2">
  <diagram id="kgpKYQtTHZ0yAKxKKP6v" name="Page-1">
    <mxGraphModel dx="1422" dy="762" grid="1" gridSize="5" guides="1" tooltips="1" connect="1" arrows="1" fold="1" page="1" pageScale="1" pageWidth="1100" pageHeight="850" background="none" math="0" shadow="0">
      <root>
        <mxCell id="0" />
        <mxCell id="1" parent="0" />
        <mxCell id="3nuBFxr9cyL0pnOWT2aG-1" value="MSG_QUEUE" style="shape=umlLifeline;perimeter=lifelinePerimeter;container=1;collapsible=0;recursiveResize=0;rounded=0;shadow=0;strokeWidth=1;" parent="1" vertex="1">
          <mxGeometry x="100" y="20" width="100" height="1300" as="geometry" />
        </mxCell>
        <mxCell id="3nuBFxr9cyL0pnOWT2aG-2" value="" style="points=[];perimeter=orthogonalPerimeter;rounded=0;shadow=0;strokeWidth=1;" parent="3nuBFxr9cyL0pnOWT2aG-1" vertex="1">
          <mxGeometry x="45" y="381" width="10" height="20" as="geometry" />
        </mxCell>
        <mxCell id="XTg4wFsLAG9Y3bkzQXjr-33" value="" style="html=1;points=[];perimeter=orthogonalPerimeter;" parent="3nuBFxr9cyL0pnOWT2aG-1" vertex="1">
          <mxGeometry x="45" y="621" width="10" height="30" as="geometry" />
        </mxCell>
        <mxCell id="XTg4wFsLAG9Y3bkzQXjr-71" value="" style="points=[];perimeter=orthogonalPerimeter;rounded=0;shadow=0;strokeWidth=1;" parent="3nuBFxr9cyL0pnOWT2aG-1" vertex="1">
          <mxGeometry x="45" y="80" width="10" height="20" as="geometry" />
        </mxCell>
        <mxCell id="XTg4wFsLAG9Y3bkzQXjr-83" value="" style="html=1;points=[];perimeter=orthogonalPerimeter;" parent="3nuBFxr9cyL0pnOWT2aG-1" vertex="1">
          <mxGeometry x="45" y="260" width="10" height="30" as="geometry" />
        </mxCell>
        <mxCell id="XTg4wFsLAG9Y3bkzQXjr-85" value="response" style="html=1;verticalAlign=bottom;endArrow=open;dashed=1;endSize=8;exitX=0;exitY=0.656;exitDx=0;exitDy=0;exitPerimeter=0;" parent="3nuBFxr9cyL0pnOWT2aG-1" source="XTg4wFsLAG9Y3bkzQXjr-83" edge="1">
          <mxGeometry relative="1" as="geometry">
            <mxPoint x="40" y="190" as="sourcePoint" />
            <mxPoint x="-40" y="280" as="targetPoint" />
          </mxGeometry>
        </mxCell>
        <mxCell id="XTg4wFsLAG9Y3bkzQXjr-103" value="" style="html=1;points=[];perimeter=orthogonalPerimeter;" parent="3nuBFxr9cyL0pnOWT2aG-1" vertex="1">
          <mxGeometry x="45" y="1020" width="10" height="40" as="geometry" />
        </mxCell>
        <mxCell id="XTg4wFsLAG9Y3bkzQXjr-104" value="" style="html=1;points=[];perimeter=orthogonalPerimeter;" parent="3nuBFxr9cyL0pnOWT2aG-1" vertex="1">
          <mxGeometry x="45" y="1235" width="10" height="40" as="geometry" />
        </mxCell>
        <mxCell id="3nuBFxr9cyL0pnOWT2aG-5" value="Data_Model" style="shape=umlLifeline;perimeter=lifelinePerimeter;container=1;collapsible=0;recursiveResize=0;rounded=0;shadow=0;strokeWidth=1;" parent="1" vertex="1">
          <mxGeometry x="430" y="20" width="100" height="1300" as="geometry" />
        </mxCell>
        <mxCell id="3nuBFxr9cyL0pnOWT2aG-6" value="" style="points=[];perimeter=orthogonalPerimeter;rounded=0;shadow=0;strokeWidth=1;" parent="3nuBFxr9cyL0pnOWT2aG-5" vertex="1">
          <mxGeometry x="45" y="381" width="10" height="30" as="geometry" />
        </mxCell>
        <mxCell id="XTg4wFsLAG9Y3bkzQXjr-21" value="" style="html=1;points=[];perimeter=orthogonalPerimeter;" parent="3nuBFxr9cyL0pnOWT2aG-5" vertex="1">
          <mxGeometry x="45" y="490.6" width="10" height="80.4" as="geometry" />
        </mxCell>
        <mxCell id="XTg4wFsLAG9Y3bkzQXjr-22" value="async_call" style="edgeStyle=orthogonalEdgeStyle;html=1;align=left;spacingLeft=2;endArrow=block;rounded=0;entryX=1;entryY=0;exitX=0.502;exitY=0.368;exitDx=0;exitDy=0;exitPerimeter=0;" parent="3nuBFxr9cyL0pnOWT2aG-5" target="XTg4wFsLAG9Y3bkzQXjr-21" edge="1">
          <mxGeometry relative="1" as="geometry">
            <mxPoint x="50.200000000000045" y="461" as="sourcePoint" />
            <Array as="points">
              <mxPoint x="75" y="460.6" />
              <mxPoint x="75" y="490.6" />
            </Array>
          </mxGeometry>
        </mxCell>
        <mxCell id="XTg4wFsLAG9Y3bkzQXjr-28" value="" style="html=1;points=[];perimeter=orthogonalPerimeter;" parent="3nuBFxr9cyL0pnOWT2aG-5" vertex="1">
          <mxGeometry x="45" y="601" width="10" height="40" as="geometry" />
        </mxCell>
        <mxCell id="XTg4wFsLAG9Y3bkzQXjr-29" value="send_resp?true" style="edgeStyle=orthogonalEdgeStyle;html=1;align=left;spacingLeft=2;endArrow=block;rounded=0;entryX=1;entryY=0;exitX=0.5;exitY=0.458;exitDx=0;exitDy=0;exitPerimeter=0;" parent="3nuBFxr9cyL0pnOWT2aG-5" source="3nuBFxr9cyL0pnOWT2aG-5" target="XTg4wFsLAG9Y3bkzQXjr-28" edge="1">
          <mxGeometry x="0.7318" relative="1" as="geometry">
            <mxPoint x="49.5" y="601" as="sourcePoint" />
            <Array as="points">
              <mxPoint x="75" y="582" />
              <mxPoint x="75" y="601" />
            </Array>
            <mxPoint as="offset" />
          </mxGeometry>
        </mxCell>
        <mxCell id="XTg4wFsLAG9Y3bkzQXjr-51" value="" style="html=1;points=[];perimeter=orthogonalPerimeter;" parent="3nuBFxr9cyL0pnOWT2aG-5" vertex="1">
          <mxGeometry x="45" y="671" width="10" height="40" as="geometry" />
        </mxCell>
        <mxCell id="XTg4wFsLAG9Y3bkzQXjr-60" value="" style="html=1;points=[];perimeter=orthogonalPerimeter;" parent="3nuBFxr9cyL0pnOWT2aG-5" vertex="1">
          <mxGeometry x="45" y="831" width="10" height="40" as="geometry" />
        </mxCell>
        <mxCell id="XTg4wFsLAG9Y3bkzQXjr-77" value="" style="points=[];perimeter=orthogonalPerimeter;rounded=0;shadow=0;strokeWidth=1;" parent="3nuBFxr9cyL0pnOWT2aG-5" vertex="1">
          <mxGeometry x="45" y="110" width="10" height="110" as="geometry" />
        </mxCell>
        <mxCell id="XTg4wFsLAG9Y3bkzQXjr-80" value="" style="html=1;points=[];perimeter=orthogonalPerimeter;" parent="3nuBFxr9cyL0pnOWT2aG-5" vertex="1">
          <mxGeometry x="45" y="250" width="10" height="20" as="geometry" />
        </mxCell>
        <mxCell id="XTg4wFsLAG9Y3bkzQXjr-81" value="send_resp?true" style="edgeStyle=orthogonalEdgeStyle;html=1;align=left;spacingLeft=2;endArrow=block;rounded=0;entryX=1;entryY=0;" parent="3nuBFxr9cyL0pnOWT2aG-5" target="XTg4wFsLAG9Y3bkzQXjr-80" edge="1">
          <mxGeometry x="0.7318" relative="1" as="geometry">
            <mxPoint x="50" y="230" as="sourcePoint" />
            <Array as="points">
              <mxPoint x="75" y="230" />
              <mxPoint x="75" y="250" />
            </Array>
            <mxPoint as="offset" />
          </mxGeometry>
        </mxCell>
        <mxCell id="XTg4wFsLAG9Y3bkzQXjr-86" value="" style="html=1;points=[];perimeter=orthogonalPerimeter;" parent="3nuBFxr9cyL0pnOWT2aG-5" vertex="1">
          <mxGeometry x="45" y="900" width="10" height="70" as="geometry" />
        </mxCell>
        <mxCell id="XTg4wFsLAG9Y3bkzQXjr-88" value="" style="html=1;points=[];perimeter=orthogonalPerimeter;" parent="3nuBFxr9cyL0pnOWT2aG-5" vertex="1">
          <mxGeometry x="45" y="1090" width="10" height="50" as="geometry" />
        </mxCell>
        <mxCell id="XTg4wFsLAG9Y3bkzQXjr-1" value="Subscription" style="shape=umlLifeline;perimeter=lifelinePerimeter;container=1;collapsible=0;recursiveResize=0;rounded=0;shadow=0;strokeWidth=1;" parent="1" vertex="1">
          <mxGeometry x="790" y="20" width="100" height="1300" as="geometry" />
        </mxCell>
        <mxCell id="XTg4wFsLAG9Y3bkzQXjr-67" value="" style="html=1;points=[];perimeter=orthogonalPerimeter;" parent="XTg4wFsLAG9Y3bkzQXjr-1" vertex="1">
          <mxGeometry x="45" y="120" width="10" height="80" as="geometry" />
        </mxCell>
        <mxCell id="XTg4wFsLAG9Y3bkzQXjr-90" value="" style="html=1;points=[];perimeter=orthogonalPerimeter;" parent="XTg4wFsLAG9Y3bkzQXjr-1" vertex="1">
          <mxGeometry x="45" y="950" width="10" height="60" as="geometry" />
        </mxCell>
        <mxCell id="XTg4wFsLAG9Y3bkzQXjr-91" value="" style="html=1;points=[];perimeter=orthogonalPerimeter;" parent="XTg4wFsLAG9Y3bkzQXjr-1" vertex="1">
          <mxGeometry x="45" y="1140" width="10" height="100" as="geometry" />
        </mxCell>
        <mxCell id="XTg4wFsLAG9Y3bkzQXjr-3" value="MSG_Handler" style="shape=umlLifeline;perimeter=lifelinePerimeter;container=1;collapsible=0;recursiveResize=0;rounded=0;shadow=0;strokeWidth=1;" parent="1" vertex="1">
          <mxGeometry x="260" y="20" width="100" height="1300" as="geometry" />
        </mxCell>
        <mxCell id="XTg4wFsLAG9Y3bkzQXjr-4" value="" style="points=[];perimeter=orthogonalPerimeter;rounded=0;shadow=0;strokeWidth=1;" parent="XTg4wFsLAG9Y3bkzQXjr-3" vertex="1">
          <mxGeometry x="45" y="381" width="10" height="260" as="geometry" />
        </mxCell>
        <mxCell id="XTg4wFsLAG9Y3bkzQXjr-74" value="" style="points=[];perimeter=orthogonalPerimeter;rounded=0;shadow=0;strokeWidth=1;" parent="XTg4wFsLAG9Y3bkzQXjr-3" vertex="1">
          <mxGeometry x="45" y="90" width="10" height="190" as="geometry" />
        </mxCell>
        <mxCell id="XTg4wFsLAG9Y3bkzQXjr-102" value="" style="html=1;points=[];perimeter=orthogonalPerimeter;" parent="XTg4wFsLAG9Y3bkzQXjr-3" vertex="1">
          <mxGeometry x="45" y="1000" width="10" height="40" as="geometry" />
        </mxCell>
        <mxCell id="XTg4wFsLAG9Y3bkzQXjr-108" value="" style="html=1;points=[];perimeter=orthogonalPerimeter;" parent="XTg4wFsLAG9Y3bkzQXjr-3" vertex="1">
          <mxGeometry x="45" y="1215" width="10" height="40" as="geometry" />
        </mxCell>
        <mxCell id="XTg4wFsLAG9Y3bkzQXjr-7" value="" style="endArrow=classic;html=1;entryX=0.033;entryY=-0.004;entryDx=0;entryDy=0;entryPerimeter=0;" parent="1" target="3nuBFxr9cyL0pnOWT2aG-2" edge="1">
          <mxGeometry relative="1" as="geometry">
            <mxPoint x="30" y="400" as="sourcePoint" />
            <mxPoint x="140" y="401" as="targetPoint" />
          </mxGeometry>
        </mxCell>
        <mxCell id="XTg4wFsLAG9Y3bkzQXjr-8" value="request&lt;br&gt;Download()" style="edgeLabel;resizable=0;html=1;align=center;verticalAlign=middle;" parent="XTg4wFsLAG9Y3bkzQXjr-7" connectable="0" vertex="1">
          <mxGeometry relative="1" as="geometry" />
        </mxCell>
        <mxCell id="XTg4wFsLAG9Y3bkzQXjr-9" value="ACS" style="edgeLabel;resizable=0;html=1;align=left;verticalAlign=bottom;" parent="XTg4wFsLAG9Y3bkzQXjr-7" connectable="0" vertex="1">
          <mxGeometry x="-1" relative="1" as="geometry" />
        </mxCell>
        <mxCell id="XTg4wFsLAG9Y3bkzQXjr-10" value="" style="endArrow=classic;html=1;exitX=1.111;exitY=0.161;exitDx=0;exitDy=0;exitPerimeter=0;" parent="1" source="3nuBFxr9cyL0pnOWT2aG-2" target="XTg4wFsLAG9Y3bkzQXjr-4" edge="1">
          <mxGeometry relative="1" as="geometry">
            <mxPoint x="160" y="431" as="sourcePoint" />
            <mxPoint x="250" y="431" as="targetPoint" />
          </mxGeometry>
        </mxCell>
        <mxCell id="XTg4wFsLAG9Y3bkzQXjr-11" value="USP_REQ" style="edgeLabel;resizable=0;html=1;align=center;verticalAlign=middle;" parent="XTg4wFsLAG9Y3bkzQXjr-10" connectable="0" vertex="1">
          <mxGeometry relative="1" as="geometry" />
        </mxCell>
        <mxCell id="XTg4wFsLAG9Y3bkzQXjr-14" value="" style="endArrow=classic;html=1;exitX=1.133;exitY=0.142;exitDx=0;exitDy=0;exitPerimeter=0;" parent="1" edge="1">
          <mxGeometry relative="1" as="geometry">
            <mxPoint x="316.3299999999999" y="411" as="sourcePoint" />
            <mxPoint x="475" y="411" as="targetPoint" />
          </mxGeometry>
        </mxCell>
        <mxCell id="XTg4wFsLAG9Y3bkzQXjr-15" value="async operate req" style="edgeLabel;resizable=0;html=1;align=center;verticalAlign=middle;" parent="XTg4wFsLAG9Y3bkzQXjr-14" connectable="0" vertex="1">
          <mxGeometry relative="1" as="geometry" />
        </mxCell>
        <mxCell id="XTg4wFsLAG9Y3bkzQXjr-16" value="Request" style="shape=umlLifeline;perimeter=lifelinePerimeter;container=1;collapsible=0;recursiveResize=0;rounded=0;shadow=0;strokeWidth=1;" parent="1" vertex="1">
          <mxGeometry x="620" y="20" width="100" height="1300" as="geometry" />
        </mxCell>
        <mxCell id="XTg4wFsLAG9Y3bkzQXjr-17" value="" style="points=[];perimeter=orthogonalPerimeter;rounded=0;shadow=0;strokeWidth=1;" parent="XTg4wFsLAG9Y3bkzQXjr-16" vertex="1">
          <mxGeometry x="45" y="391" width="10" height="20" as="geometry" />
        </mxCell>
        <mxCell id="XTg4wFsLAG9Y3bkzQXjr-45" value="" style="html=1;points=[];perimeter=orthogonalPerimeter;" parent="XTg4wFsLAG9Y3bkzQXjr-16" vertex="1">
          <mxGeometry x="45" y="701" width="10" height="25" as="geometry" />
        </mxCell>
        <mxCell id="XTg4wFsLAG9Y3bkzQXjr-61" value="" style="html=1;points=[];perimeter=orthogonalPerimeter;" parent="XTg4wFsLAG9Y3bkzQXjr-16" vertex="1">
          <mxGeometry x="45" y="851" width="10" height="25" as="geometry" />
        </mxCell>
        <mxCell id="XTg4wFsLAG9Y3bkzQXjr-92" value="" style="html=1;points=[];perimeter=orthogonalPerimeter;" parent="XTg4wFsLAG9Y3bkzQXjr-16" vertex="1">
          <mxGeometry x="45" y="1120" width="10" height="40" as="geometry" />
        </mxCell>
        <mxCell id="XTg4wFsLAG9Y3bkzQXjr-99" value="" style="html=1;points=[];perimeter=orthogonalPerimeter;" parent="XTg4wFsLAG9Y3bkzQXjr-16" vertex="1">
          <mxGeometry x="45" y="1190" width="10" height="20" as="geometry" />
        </mxCell>
        <mxCell id="XTg4wFsLAG9Y3bkzQXjr-100" value="del request&lt;br&gt;instance" style="edgeStyle=orthogonalEdgeStyle;html=1;align=left;spacingLeft=2;endArrow=block;rounded=0;entryX=1;entryY=0;exitX=1.04;exitY=0.995;exitDx=0;exitDy=0;exitPerimeter=0;" parent="XTg4wFsLAG9Y3bkzQXjr-16" source="XTg4wFsLAG9Y3bkzQXjr-92" target="XTg4wFsLAG9Y3bkzQXjr-99" edge="1">
          <mxGeometry relative="1" as="geometry">
            <mxPoint x="50" y="1170" as="sourcePoint" />
            <Array as="points">
              <mxPoint x="75" y="1160" />
              <mxPoint x="75" y="1190" />
            </Array>
          </mxGeometry>
        </mxCell>
        <mxCell id="XTg4wFsLAG9Y3bkzQXjr-18" value="" style="endArrow=classic;html=1;exitX=1.083;exitY=0.641;exitDx=0;exitDy=0;exitPerimeter=0;entryX=-0.013;entryY=0.447;entryDx=0;entryDy=0;entryPerimeter=0;" parent="1" source="3nuBFxr9cyL0pnOWT2aG-6" target="XTg4wFsLAG9Y3bkzQXjr-17" edge="1">
          <mxGeometry relative="1" as="geometry">
            <mxPoint x="790" y="421" as="sourcePoint" />
            <mxPoint x="930" y="420" as="targetPoint" />
          </mxGeometry>
        </mxCell>
        <mxCell id="XTg4wFsLAG9Y3bkzQXjr-19" value="add request&lt;br&gt;OperationComplete" style="edgeLabel;resizable=0;html=1;align=center;verticalAlign=middle;" parent="XTg4wFsLAG9Y3bkzQXjr-18" connectable="0" vertex="1">
          <mxGeometry relative="1" as="geometry" />
        </mxCell>
        <mxCell id="XTg4wFsLAG9Y3bkzQXjr-23" value="Transfer&#xa;Module" style="shape=umlLifeline;perimeter=lifelinePerimeter;container=1;collapsible=0;recursiveResize=0;rounded=0;shadow=0;strokeWidth=1;" parent="1" vertex="1">
          <mxGeometry x="930" y="20" width="100" height="1300" as="geometry" />
        </mxCell>
        <mxCell id="XTg4wFsLAG9Y3bkzQXjr-24" value="" style="points=[];perimeter=orthogonalPerimeter;rounded=0;shadow=0;strokeWidth=1;" parent="XTg4wFsLAG9Y3bkzQXjr-23" vertex="1">
          <mxGeometry x="45" y="501" width="10" height="669" as="geometry" />
        </mxCell>
        <mxCell id="XTg4wFsLAG9Y3bkzQXjr-37" value="" style="html=1;points=[];perimeter=orthogonalPerimeter;" parent="XTg4wFsLAG9Y3bkzQXjr-23" vertex="1">
          <mxGeometry x="42.5" y="531" width="15" height="30" as="geometry" />
        </mxCell>
        <mxCell id="XTg4wFsLAG9Y3bkzQXjr-38" value="check cond" style="edgeStyle=orthogonalEdgeStyle;html=1;align=left;spacingLeft=2;endArrow=block;rounded=0;entryX=1;entryY=0;exitX=0.996;exitY=0.017;exitDx=0;exitDy=0;exitPerimeter=0;" parent="XTg4wFsLAG9Y3bkzQXjr-23" source="XTg4wFsLAG9Y3bkzQXjr-24" target="XTg4wFsLAG9Y3bkzQXjr-37" edge="1">
          <mxGeometry relative="1" as="geometry">
            <mxPoint x="58" y="511" as="sourcePoint" />
            <Array as="points">
              <mxPoint x="85" y="511" />
              <mxPoint x="85" y="531" />
            </Array>
          </mxGeometry>
        </mxCell>
        <mxCell id="XTg4wFsLAG9Y3bkzQXjr-49" value="" style="html=1;points=[];perimeter=orthogonalPerimeter;" parent="XTg4wFsLAG9Y3bkzQXjr-23" vertex="1">
          <mxGeometry x="42.5" y="671" width="15" height="100" as="geometry" />
        </mxCell>
        <mxCell id="XTg4wFsLAG9Y3bkzQXjr-50" value="start task" style="edgeStyle=orthogonalEdgeStyle;html=1;align=left;spacingLeft=2;endArrow=block;rounded=0;entryX=1;entryY=0;exitX=1.036;exitY=0.221;exitDx=0;exitDy=0;exitPerimeter=0;" parent="XTg4wFsLAG9Y3bkzQXjr-23" source="XTg4wFsLAG9Y3bkzQXjr-24" target="XTg4wFsLAG9Y3bkzQXjr-49" edge="1">
          <mxGeometry x="0.5284" relative="1" as="geometry">
            <mxPoint x="53" y="581" as="sourcePoint" />
            <Array as="points">
              <mxPoint x="80" y="649" />
              <mxPoint x="80" y="671" />
            </Array>
            <mxPoint as="offset" />
          </mxGeometry>
        </mxCell>
        <mxCell id="XTg4wFsLAG9Y3bkzQXjr-58" value="" style="html=1;points=[];perimeter=orthogonalPerimeter;" parent="XTg4wFsLAG9Y3bkzQXjr-23" vertex="1">
          <mxGeometry x="42.5" y="811" width="15" height="40" as="geometry" />
        </mxCell>
        <mxCell id="XTg4wFsLAG9Y3bkzQXjr-59" value="done&lt;br&gt;interrupt&lt;br&gt;timeout" style="edgeStyle=orthogonalEdgeStyle;html=1;align=center;spacingLeft=2;endArrow=block;rounded=0;entryX=1;entryY=0;" parent="XTg4wFsLAG9Y3bkzQXjr-23" target="XTg4wFsLAG9Y3bkzQXjr-58" edge="1">
          <mxGeometry x="-0.0781" y="10" relative="1" as="geometry">
            <mxPoint x="58" y="761" as="sourcePoint" />
            <Array as="points">
              <mxPoint x="58" y="761" />
              <mxPoint x="90" y="761" />
              <mxPoint x="90" y="811" />
            </Array>
            <mxPoint as="offset" />
          </mxGeometry>
        </mxCell>
        <mxCell id="XTg4wFsLAG9Y3bkzQXjr-65" value="" style="html=1;points=[];perimeter=orthogonalPerimeter;" parent="XTg4wFsLAG9Y3bkzQXjr-23" vertex="1">
          <mxGeometry x="42.5" y="950" width="15" height="150" as="geometry" />
        </mxCell>
        <mxCell id="XTg4wFsLAG9Y3bkzQXjr-66" value="file check" style="edgeStyle=orthogonalEdgeStyle;html=1;align=left;spacingLeft=2;endArrow=block;rounded=0;entryX=1;entryY=0;exitX=1.111;exitY=0.626;exitDx=0;exitDy=0;exitPerimeter=0;" parent="XTg4wFsLAG9Y3bkzQXjr-23" source="XTg4wFsLAG9Y3bkzQXjr-24" target="XTg4wFsLAG9Y3bkzQXjr-65" edge="1">
          <mxGeometry relative="1" as="geometry">
            <mxPoint x="58" y="881" as="sourcePoint" />
            <Array as="points">
              <mxPoint x="70" y="920" />
              <mxPoint x="90" y="920" />
              <mxPoint x="90" y="950" />
            </Array>
          </mxGeometry>
        </mxCell>
        <mxCell id="XTg4wFsLAG9Y3bkzQXjr-116" value="auto activate?" style="edgeStyle=orthogonalEdgeStyle;html=1;align=left;spacingLeft=2;endArrow=block;rounded=0;entryX=0.987;entryY=0.801;exitX=1;exitY=0.599;exitDx=0;exitDy=0;exitPerimeter=0;entryDx=0;entryDy=0;entryPerimeter=0;" parent="XTg4wFsLAG9Y3bkzQXjr-23" source="XTg4wFsLAG9Y3bkzQXjr-65" target="XTg4wFsLAG9Y3bkzQXjr-65" edge="1">
          <mxGeometry relative="1" as="geometry">
            <mxPoint x="60.000000000000114" y="1040.004" as="sourcePoint" />
            <Array as="points">
              <mxPoint x="94" y="1040" />
              <mxPoint x="94" y="1070" />
            </Array>
            <mxPoint x="61.389999999999986" y="1070.21" as="targetPoint" />
          </mxGeometry>
        </mxCell>
        <mxCell id="XTg4wFsLAG9Y3bkzQXjr-25" style="edgeStyle=orthogonalEdgeStyle;rounded=0;orthogonalLoop=1;jettySize=auto;html=1;entryX=-0.019;entryY=0.013;entryDx=0;entryDy=0;entryPerimeter=0;" parent="1" source="XTg4wFsLAG9Y3bkzQXjr-21" target="XTg4wFsLAG9Y3bkzQXjr-24" edge="1">
          <mxGeometry relative="1" as="geometry">
            <mxPoint x="910" y="520" as="targetPoint" />
            <Array as="points">
              <mxPoint x="960" y="530" />
            </Array>
          </mxGeometry>
        </mxCell>
        <mxCell id="XTg4wFsLAG9Y3bkzQXjr-26" value="add transfer task" style="edgeLabel;html=1;align=center;verticalAlign=middle;resizable=0;points=[];" parent="XTg4wFsLAG9Y3bkzQXjr-25" vertex="1" connectable="0">
          <mxGeometry x="0.0003" y="-55" relative="1" as="geometry">
            <mxPoint x="7.09" y="-55" as="offset" />
          </mxGeometry>
        </mxCell>
        <mxCell id="XTg4wFsLAG9Y3bkzQXjr-31" value="async operate resp" style="html=1;verticalAlign=bottom;endArrow=open;dashed=1;endSize=8;exitX=-0.003;exitY=0.49;exitDx=0;exitDy=0;exitPerimeter=0;" parent="1" source="XTg4wFsLAG9Y3bkzQXjr-28" target="XTg4wFsLAG9Y3bkzQXjr-4" edge="1">
          <mxGeometry relative="1" as="geometry">
            <mxPoint x="450" y="631" as="sourcePoint" />
            <mxPoint x="370" y="631" as="targetPoint" />
            <Array as="points" />
          </mxGeometry>
        </mxCell>
        <mxCell id="XTg4wFsLAG9Y3bkzQXjr-32" value="USP_RESP" style="html=1;verticalAlign=bottom;endArrow=open;dashed=1;endSize=8;entryX=1.086;entryY=0.352;entryDx=0;entryDy=0;entryPerimeter=0;exitX=-0.01;exitY=0.968;exitDx=0;exitDy=0;exitPerimeter=0;" parent="1" source="XTg4wFsLAG9Y3bkzQXjr-4" target="XTg4wFsLAG9Y3bkzQXjr-33" edge="1">
          <mxGeometry relative="1" as="geometry">
            <mxPoint x="300" y="682" as="sourcePoint" />
            <mxPoint x="200" y="651" as="targetPoint" />
          </mxGeometry>
        </mxCell>
        <mxCell id="XTg4wFsLAG9Y3bkzQXjr-34" value="response" style="html=1;verticalAlign=bottom;endArrow=open;dashed=1;endSize=8;exitX=-0.065;exitY=0.664;exitDx=0;exitDy=0;exitPerimeter=0;" parent="1" source="XTg4wFsLAG9Y3bkzQXjr-33" edge="1">
          <mxGeometry relative="1" as="geometry">
            <mxPoint x="140" y="571" as="sourcePoint" />
            <mxPoint x="60" y="661" as="targetPoint" />
          </mxGeometry>
        </mxCell>
        <mxCell id="XTg4wFsLAG9Y3bkzQXjr-41" value="cond check unpass" style="html=1;verticalAlign=bottom;endArrow=open;dashed=1;endSize=8;exitX=-0.075;exitY=0.676;exitDx=0;exitDy=0;exitPerimeter=0;entryX=1.067;entryY=0.76;entryDx=0;entryDy=0;entryPerimeter=0;" parent="1" source="XTg4wFsLAG9Y3bkzQXjr-37" target="XTg4wFsLAG9Y3bkzQXjr-21" edge="1">
          <mxGeometry relative="1" as="geometry">
            <mxPoint x="900" y="571" as="sourcePoint" />
            <mxPoint x="820" y="571" as="targetPoint" />
          </mxGeometry>
        </mxCell>
        <mxCell id="XTg4wFsLAG9Y3bkzQXjr-42" value="async operate resp" style="html=1;verticalAlign=bottom;endArrow=open;dashed=1;endSize=8;exitX=-0.029;exitY=0.874;exitDx=0;exitDy=0;exitPerimeter=0;entryX=1.167;entryY=0.696;entryDx=0;entryDy=0;entryPerimeter=0;" parent="1" source="XTg4wFsLAG9Y3bkzQXjr-21" target="XTg4wFsLAG9Y3bkzQXjr-4" edge="1">
          <mxGeometry relative="1" as="geometry">
            <mxPoint x="469.97" y="581" as="sourcePoint" />
            <mxPoint x="320" y="581" as="targetPoint" />
            <Array as="points" />
          </mxGeometry>
        </mxCell>
        <mxCell id="XTg4wFsLAG9Y3bkzQXjr-46" value="&lt;span style=&quot;text-align: left&quot;&gt;signal operation&amp;nbsp;&lt;/span&gt;&lt;br style=&quot;text-align: left&quot;&gt;&lt;span style=&quot;text-align: left&quot;&gt;status update&lt;/span&gt;" style="html=1;verticalAlign=bottom;endArrow=open;dashed=1;endSize=8;exitX=-0.056;exitY=0.1;exitDx=0;exitDy=0;exitPerimeter=0;entryX=1.017;entryY=0.26;entryDx=0;entryDy=0;entryPerimeter=0;" parent="1" source="XTg4wFsLAG9Y3bkzQXjr-49" target="XTg4wFsLAG9Y3bkzQXjr-51" edge="1">
          <mxGeometry relative="1" as="geometry">
            <mxPoint x="1002.5450000000001" y="631.095" as="sourcePoint" />
            <mxPoint x="750" y="631" as="targetPoint" />
          </mxGeometry>
        </mxCell>
        <mxCell id="XTg4wFsLAG9Y3bkzQXjr-52" value="" style="endArrow=classic;html=1;exitX=0.981;exitY=0.981;exitDx=0;exitDy=0;exitPerimeter=0;entryX=0;entryY=0.424;entryDx=0;entryDy=0;entryPerimeter=0;" parent="1" source="XTg4wFsLAG9Y3bkzQXjr-51" target="XTg4wFsLAG9Y3bkzQXjr-45" edge="1">
          <mxGeometry relative="1" as="geometry">
            <mxPoint x="720" y="651" as="sourcePoint" />
            <mxPoint x="820" y="651" as="targetPoint" />
          </mxGeometry>
        </mxCell>
        <mxCell id="XTg4wFsLAG9Y3bkzQXjr-53" value="update request&lt;br&gt;status(Active)" style="edgeLabel;resizable=0;html=1;align=center;verticalAlign=middle;" parent="XTg4wFsLAG9Y3bkzQXjr-52" connectable="0" vertex="1">
          <mxGeometry relative="1" as="geometry" />
        </mxCell>
        <mxCell id="XTg4wFsLAG9Y3bkzQXjr-57" value="task process" style="text;html=1;strokeColor=none;fillColor=none;align=center;verticalAlign=middle;whiteSpace=wrap;rounded=0;" parent="1" vertex="1">
          <mxGeometry x="990" y="721" width="40" height="20" as="geometry" />
        </mxCell>
        <mxCell id="XTg4wFsLAG9Y3bkzQXjr-64" value="&lt;span style=&quot;text-align: left&quot;&gt;signal operation&amp;nbsp;&lt;/span&gt;&lt;br style=&quot;text-align: left&quot;&gt;&lt;span style=&quot;text-align: left&quot;&gt;status update&lt;/span&gt;" style="html=1;verticalAlign=bottom;endArrow=open;dashed=1;endSize=8;exitX=-0.078;exitY=0.75;exitDx=0;exitDy=0;exitPerimeter=0;entryX=1.046;entryY=0.255;entryDx=0;entryDy=0;entryPerimeter=0;" parent="1" source="XTg4wFsLAG9Y3bkzQXjr-58" target="XTg4wFsLAG9Y3bkzQXjr-60" edge="1">
          <mxGeometry relative="1" as="geometry">
            <mxPoint x="996.4900000000001" y="851" as="sourcePoint" />
            <mxPoint x="680" y="851.4" as="targetPoint" />
          </mxGeometry>
        </mxCell>
        <mxCell id="XTg4wFsLAG9Y3bkzQXjr-62" value="" style="endArrow=classic;html=1;exitX=1.017;exitY=0.743;exitDx=0;exitDy=0;exitPerimeter=0;entryX=0;entryY=0.424;entryDx=0;entryDy=0;entryPerimeter=0;" parent="1" source="XTg4wFsLAG9Y3bkzQXjr-60" target="XTg4wFsLAG9Y3bkzQXjr-61" edge="1">
          <mxGeometry relative="1" as="geometry">
            <mxPoint x="494.80999999999995" y="880.2400000000001" as="sourcePoint" />
            <mxPoint x="630" y="801" as="targetPoint" />
          </mxGeometry>
        </mxCell>
        <mxCell id="XTg4wFsLAG9Y3bkzQXjr-63" value="update request&lt;br&gt;status(Success/Error)" style="edgeLabel;resizable=0;html=1;align=center;verticalAlign=middle;" parent="XTg4wFsLAG9Y3bkzQXjr-62" connectable="0" vertex="1">
          <mxGeometry relative="1" as="geometry">
            <mxPoint x="0.37000000000000455" y="2.58" as="offset" />
          </mxGeometry>
        </mxCell>
        <mxCell id="XTg4wFsLAG9Y3bkzQXjr-68" value="" style="endArrow=classic;html=1;entryX=0.033;entryY=-0.004;entryDx=0;entryDy=0;entryPerimeter=0;" parent="1" edge="1">
          <mxGeometry relative="1" as="geometry">
            <mxPoint x="30" y="100" as="sourcePoint" />
            <mxPoint x="145.32999999999993" y="100.92000000000007" as="targetPoint" />
          </mxGeometry>
        </mxCell>
        <mxCell id="XTg4wFsLAG9Y3bkzQXjr-69" value="request&lt;br&gt;add Subscription" style="edgeLabel;resizable=0;html=1;align=center;verticalAlign=middle;" parent="XTg4wFsLAG9Y3bkzQXjr-68" connectable="0" vertex="1">
          <mxGeometry relative="1" as="geometry" />
        </mxCell>
        <mxCell id="XTg4wFsLAG9Y3bkzQXjr-70" value="ACS" style="edgeLabel;resizable=0;html=1;align=left;verticalAlign=bottom;" parent="XTg4wFsLAG9Y3bkzQXjr-68" connectable="0" vertex="1">
          <mxGeometry x="-1" relative="1" as="geometry" />
        </mxCell>
        <mxCell id="XTg4wFsLAG9Y3bkzQXjr-72" value="" style="endArrow=classic;html=1;exitX=1.033;exitY=0.983;exitDx=0;exitDy=0;exitPerimeter=0;entryX=0.04;entryY=0.054;entryDx=0;entryDy=0;entryPerimeter=0;" parent="1" source="XTg4wFsLAG9Y3bkzQXjr-71" target="XTg4wFsLAG9Y3bkzQXjr-74" edge="1">
          <mxGeometry relative="1" as="geometry">
            <mxPoint x="149.9999999999999" y="120" as="sourcePoint" />
            <mxPoint x="298.89" y="120" as="targetPoint" />
          </mxGeometry>
        </mxCell>
        <mxCell id="XTg4wFsLAG9Y3bkzQXjr-73" value="USP_REQ" style="edgeLabel;resizable=0;html=1;align=center;verticalAlign=middle;" parent="XTg4wFsLAG9Y3bkzQXjr-72" connectable="0" vertex="1">
          <mxGeometry relative="1" as="geometry" />
        </mxCell>
        <mxCell id="XTg4wFsLAG9Y3bkzQXjr-75" value="" style="endArrow=classic;html=1;exitX=1.133;exitY=0.142;exitDx=0;exitDy=0;exitPerimeter=0;" parent="1" edge="1">
          <mxGeometry relative="1" as="geometry">
            <mxPoint x="314.99999999999994" y="140" as="sourcePoint" />
            <mxPoint x="473.67" y="140" as="targetPoint" />
          </mxGeometry>
        </mxCell>
        <mxCell id="XTg4wFsLAG9Y3bkzQXjr-76" value="add subscription req" style="edgeLabel;resizable=0;html=1;align=center;verticalAlign=middle;" parent="XTg4wFsLAG9Y3bkzQXjr-75" connectable="0" vertex="1">
          <mxGeometry relative="1" as="geometry" />
        </mxCell>
        <mxCell id="XTg4wFsLAG9Y3bkzQXjr-78" value="" style="endArrow=classic;html=1;entryX=0.08;entryY=0.243;entryDx=0;entryDy=0;entryPerimeter=0;exitX=1.035;exitY=0.273;exitDx=0;exitDy=0;exitPerimeter=0;" parent="1" source="XTg4wFsLAG9Y3bkzQXjr-77" target="XTg4wFsLAG9Y3bkzQXjr-67" edge="1">
          <mxGeometry relative="1" as="geometry">
            <mxPoint x="490" y="160" as="sourcePoint" />
            <mxPoint x="590" y="160" as="targetPoint" />
          </mxGeometry>
        </mxCell>
        <mxCell id="XTg4wFsLAG9Y3bkzQXjr-79" value="add subscription req&lt;br&gt;ref: Download()&lt;br&gt;ref: TransferComplete!" style="edgeLabel;resizable=0;html=1;align=center;verticalAlign=middle;" parent="XTg4wFsLAG9Y3bkzQXjr-78" connectable="0" vertex="1">
          <mxGeometry relative="1" as="geometry" />
        </mxCell>
        <mxCell id="XTg4wFsLAG9Y3bkzQXjr-82" value="add subscription resp" style="html=1;verticalAlign=bottom;endArrow=open;dashed=1;endSize=8;entryX=1.003;entryY=0.893;entryDx=0;entryDy=0;entryPerimeter=0;exitX=-0.013;exitY=0.503;exitDx=0;exitDy=0;exitPerimeter=0;" parent="1" source="XTg4wFsLAG9Y3bkzQXjr-80" target="XTg4wFsLAG9Y3bkzQXjr-74" edge="1">
          <mxGeometry relative="1" as="geometry">
            <mxPoint x="480" y="280" as="sourcePoint" />
            <mxPoint x="320" y="280.0000000000001" as="targetPoint" />
            <Array as="points" />
          </mxGeometry>
        </mxCell>
        <mxCell id="XTg4wFsLAG9Y3bkzQXjr-84" value="USP_RESP" style="html=1;verticalAlign=bottom;endArrow=open;dashed=1;endSize=8;entryX=0.981;entryY=0.347;entryDx=0;entryDy=0;entryPerimeter=0;exitX=-0.003;exitY=0.954;exitDx=0;exitDy=0;exitPerimeter=0;" parent="1" source="XTg4wFsLAG9Y3bkzQXjr-74" target="XTg4wFsLAG9Y3bkzQXjr-83" edge="1">
          <mxGeometry relative="1" as="geometry">
            <mxPoint x="304.9000000000001" y="291.68000000000006" as="sourcePoint" />
            <mxPoint x="200" y="290" as="targetPoint" />
          </mxGeometry>
        </mxCell>
        <mxCell id="XTg4wFsLAG9Y3bkzQXjr-87" value="&lt;span style=&quot;text-align: left&quot;&gt;signal event&lt;/span&gt;&lt;br style=&quot;text-align: left&quot;&gt;&lt;span style=&quot;text-align: left&quot;&gt;TransferComplete!&lt;/span&gt;" style="html=1;verticalAlign=bottom;endArrow=open;dashed=1;endSize=8;exitX=0;exitY=0.62;exitDx=0;exitDy=0;exitPerimeter=0;entryX=0.981;entryY=0.213;entryDx=0;entryDy=0;entryPerimeter=0;" parent="1" source="XTg4wFsLAG9Y3bkzQXjr-24" target="XTg4wFsLAG9Y3bkzQXjr-86" edge="1">
          <mxGeometry relative="1" as="geometry">
            <mxPoint x="974" y="950" as="sourcePoint" />
            <mxPoint x="485" y="953" as="targetPoint" />
          </mxGeometry>
        </mxCell>
        <mxCell id="XTg4wFsLAG9Y3bkzQXjr-89" value="&lt;span style=&quot;text-align: left&quot;&gt;signal opertaion &lt;br&gt;complete&lt;br&gt;&lt;/span&gt;" style="html=1;verticalAlign=bottom;endArrow=open;dashed=1;endSize=8;exitX=-0.001;exitY=0.998;exitDx=0;exitDy=0;exitPerimeter=0;entryX=1.074;entryY=0.208;entryDx=0;entryDy=0;entryPerimeter=0;" parent="1" source="XTg4wFsLAG9Y3bkzQXjr-65" target="XTg4wFsLAG9Y3bkzQXjr-88" edge="1">
          <mxGeometry relative="1" as="geometry">
            <mxPoint x="1001.3299999999999" y="1010" as="sourcePoint" />
            <mxPoint x="680" y="1000.4" as="targetPoint" />
          </mxGeometry>
        </mxCell>
        <mxCell id="XTg4wFsLAG9Y3bkzQXjr-95" value="" style="endArrow=classic;html=1;entryX=-0.061;entryY=0.265;entryDx=0;entryDy=0;entryPerimeter=0;exitX=1.086;exitY=0.8;exitDx=0;exitDy=0;exitPerimeter=0;" parent="1" source="XTg4wFsLAG9Y3bkzQXjr-88" target="XTg4wFsLAG9Y3bkzQXjr-92" edge="1">
          <mxGeometry width="50" height="50" relative="1" as="geometry">
            <mxPoint x="500" y="1151" as="sourcePoint" />
            <mxPoint x="663" y="1146" as="targetPoint" />
          </mxGeometry>
        </mxCell>
        <mxCell id="XTg4wFsLAG9Y3bkzQXjr-97" value="request operation&lt;br&gt;complete" style="edgeLabel;html=1;align=center;verticalAlign=middle;resizable=0;points=[];" parent="XTg4wFsLAG9Y3bkzQXjr-95" vertex="1" connectable="0">
          <mxGeometry x="-0.1847" y="-2" relative="1" as="geometry">
            <mxPoint as="offset" />
          </mxGeometry>
        </mxCell>
        <mxCell id="XTg4wFsLAG9Y3bkzQXjr-96" value="" style="endArrow=classic;html=1;exitX=0.955;exitY=0.756;exitDx=0;exitDy=0;exitPerimeter=0;entryX=-0.114;entryY=0.1;entryDx=0;entryDy=0;entryPerimeter=0;" parent="1" source="XTg4wFsLAG9Y3bkzQXjr-92" target="XTg4wFsLAG9Y3bkzQXjr-91" edge="1">
          <mxGeometry width="50" height="50" relative="1" as="geometry">
            <mxPoint x="649.9999999999999" y="1170" as="sourcePoint" />
            <mxPoint x="820" y="1171" as="targetPoint" />
          </mxGeometry>
        </mxCell>
        <mxCell id="XTg4wFsLAG9Y3bkzQXjr-98" value="process subscirption" style="edgeLabel;html=1;align=center;verticalAlign=middle;resizable=0;points=[];" parent="XTg4wFsLAG9Y3bkzQXjr-96" vertex="1" connectable="0">
          <mxGeometry x="-0.0482" relative="1" as="geometry">
            <mxPoint as="offset" />
          </mxGeometry>
        </mxCell>
        <mxCell id="XTg4wFsLAG9Y3bkzQXjr-101" value="send event TransferComplete! notify" style="html=1;verticalAlign=bottom;endArrow=open;dashed=1;endSize=8;exitX=0;exitY=0.967;exitDx=0;exitDy=0;exitPerimeter=0;entryX=0.987;entryY=0.215;entryDx=0;entryDy=0;entryPerimeter=0;" parent="1" source="XTg4wFsLAG9Y3bkzQXjr-90" target="XTg4wFsLAG9Y3bkzQXjr-102" edge="1">
          <mxGeometry relative="1" as="geometry">
            <mxPoint x="490" y="1100" as="sourcePoint" />
            <mxPoint x="310" y="1074" as="targetPoint" />
          </mxGeometry>
        </mxCell>
        <mxCell id="XTg4wFsLAG9Y3bkzQXjr-105" value="USP_NOTIFY" style="html=1;verticalAlign=bottom;endArrow=open;dashed=1;endSize=8;entryX=0.933;entryY=0.283;entryDx=0;entryDy=0;entryPerimeter=0;exitX=-0.033;exitY=0.775;exitDx=0;exitDy=0;exitPerimeter=0;" parent="1" source="XTg4wFsLAG9Y3bkzQXjr-102" target="XTg4wFsLAG9Y3bkzQXjr-103" edge="1">
          <mxGeometry relative="1" as="geometry">
            <mxPoint x="304.03999999999985" y="1031.1200000000001" as="sourcePoint" />
            <mxPoint x="154.9999999999999" y="1030" as="targetPoint" />
          </mxGeometry>
        </mxCell>
        <mxCell id="XTg4wFsLAG9Y3bkzQXjr-106" value="notify" style="html=1;verticalAlign=bottom;endArrow=open;dashed=1;endSize=8;exitX=0;exitY=0.758;exitDx=0;exitDy=0;exitPerimeter=0;" parent="1" source="XTg4wFsLAG9Y3bkzQXjr-103" edge="1">
          <mxGeometry relative="1" as="geometry">
            <mxPoint x="144.3499999999999" y="1070" as="sourcePoint" />
            <mxPoint x="60" y="1070.08" as="targetPoint" />
          </mxGeometry>
        </mxCell>
        <mxCell id="XTg4wFsLAG9Y3bkzQXjr-107" value="notify" style="html=1;verticalAlign=bottom;endArrow=open;dashed=1;endSize=8;exitX=-0.086;exitY=0.875;exitDx=0;exitDy=0;exitPerimeter=0;" parent="1" source="XTg4wFsLAG9Y3bkzQXjr-104" edge="1">
          <mxGeometry relative="1" as="geometry">
            <mxPoint x="144.3499999999999" y="1290" as="sourcePoint" />
            <mxPoint x="60" y="1290.08" as="targetPoint" />
          </mxGeometry>
        </mxCell>
        <mxCell id="XTg4wFsLAG9Y3bkzQXjr-109" value="USP_NOTIFY" style="html=1;verticalAlign=bottom;endArrow=open;dashed=1;endSize=8;entryX=1.057;entryY=0.346;entryDx=0;entryDy=0;entryPerimeter=0;exitX=-0.029;exitY=0.846;exitDx=0;exitDy=0;exitPerimeter=0;" parent="1" source="XTg4wFsLAG9Y3bkzQXjr-108" target="XTg4wFsLAG9Y3bkzQXjr-104" edge="1">
          <mxGeometry relative="1" as="geometry">
            <mxPoint x="300.33999999999986" y="1210" as="sourcePoint" />
            <mxPoint x="150.00000000000003" y="1210.32" as="targetPoint" />
          </mxGeometry>
        </mxCell>
        <mxCell id="XTg4wFsLAG9Y3bkzQXjr-112" value="send operationComplete notify" style="html=1;verticalAlign=bottom;endArrow=open;dashed=1;endSize=8;exitX=-0.114;exitY=0.894;exitDx=0;exitDy=0;exitPerimeter=0;entryX=0.943;entryY=0.361;entryDx=0;entryDy=0;entryPerimeter=0;" parent="1" source="XTg4wFsLAG9Y3bkzQXjr-91" target="XTg4wFsLAG9Y3bkzQXjr-108" edge="1">
          <mxGeometry relative="1" as="geometry">
            <mxPoint x="828.25" y="1190.0000000000002" as="sourcePoint" />
            <mxPoint x="310" y="1191" as="targetPoint" />
          </mxGeometry>
        </mxCell>
        <mxCell id="XTg4wFsLAG9Y3bkzQXjr-113" value="" style="endArrow=classic;html=1;exitX=1.028;exitY=0.842;exitDx=0;exitDy=0;exitPerimeter=0;entryX=0.067;entryY=0.167;entryDx=0;entryDy=0;entryPerimeter=0;" parent="1" source="XTg4wFsLAG9Y3bkzQXjr-86" target="XTg4wFsLAG9Y3bkzQXjr-90" edge="1">
          <mxGeometry width="50" height="50" relative="1" as="geometry">
            <mxPoint x="489.99999999999994" y="980" as="sourcePoint" />
            <mxPoint x="839.99" y="981.3400000000001" as="targetPoint" />
          </mxGeometry>
        </mxCell>
        <mxCell id="XTg4wFsLAG9Y3bkzQXjr-114" value="process subscirption" style="edgeLabel;html=1;align=center;verticalAlign=middle;resizable=0;points=[];" parent="XTg4wFsLAG9Y3bkzQXjr-113" vertex="1" connectable="0">
          <mxGeometry x="-0.1847" y="-2" relative="1" as="geometry">
            <mxPoint x="32.43" y="-2.23" as="offset" />
          </mxGeometry>
        </mxCell>
      </root>
    </mxGraphModel>
  </diagram>
  <diagram id="_s27y14We_hgLq-mWtRu" name="Page-2">
    <mxGraphModel dx="569" dy="305" grid="1" gridSize="5" guides="1" tooltips="1" connect="1" arrows="1" fold="1" page="1" pageScale="1" pageWidth="850" pageHeight="1100" math="0" shadow="0">
      <root>
        <mxCell id="sZ3u7BNd2FGb5M5X52Cd-0" />
        <mxCell id="sZ3u7BNd2FGb5M5X52Cd-1" parent="sZ3u7BNd2FGb5M5X52Cd-0" />
        <mxCell id="Wbn9vYfk1FPGFbjwdXey-0" value="" style="ellipse;html=1;shape=startState;strokeColor=#ff0000;fillColor=#FFFFFF;" parent="sZ3u7BNd2FGb5M5X52Cd-1" vertex="1">
          <mxGeometry x="169.94" y="15" width="30" height="30" as="geometry" />
        </mxCell>
        <mxCell id="Wbn9vYfk1FPGFbjwdXey-1" value="" style="edgeStyle=orthogonalEdgeStyle;html=1;verticalAlign=bottom;endArrow=open;endSize=8;strokeColor=#ff0000;" parent="sZ3u7BNd2FGb5M5X52Cd-1" source="Wbn9vYfk1FPGFbjwdXey-0" target="Wbn9vYfk1FPGFbjwdXey-2" edge="1">
          <mxGeometry relative="1" as="geometry">
            <mxPoint x="184.94" y="90" as="targetPoint" />
          </mxGeometry>
        </mxCell>
        <mxCell id="Wbn9vYfk1FPGFbjwdXey-4" value="" style="edgeStyle=orthogonalEdgeStyle;rounded=0;orthogonalLoop=1;jettySize=auto;html=1;" parent="sZ3u7BNd2FGb5M5X52Cd-1" source="Wbn9vYfk1FPGFbjwdXey-2" target="Wbn9vYfk1FPGFbjwdXey-3" edge="1">
          <mxGeometry relative="1" as="geometry" />
        </mxCell>
        <mxCell id="Wbn9vYfk1FPGFbjwdXey-2" value="api set transfer root tmp dir" style="html=1;" parent="sZ3u7BNd2FGb5M5X52Cd-1" vertex="1">
          <mxGeometry x="111.16" y="60" width="147.59" height="20" as="geometry" />
        </mxCell>
        <mxCell id="Wbn9vYfk1FPGFbjwdXey-9" value="" style="edgeStyle=orthogonalEdgeStyle;rounded=0;orthogonalLoop=1;jettySize=auto;html=1;" parent="sZ3u7BNd2FGb5M5X52Cd-1" source="Wbn9vYfk1FPGFbjwdXey-3" target="Wbn9vYfk1FPGFbjwdXey-8" edge="1">
          <mxGeometry relative="1" as="geometry" />
        </mxCell>
        <mxCell id="Wbn9vYfk1FPGFbjwdXey-3" value="read DB Interal.FileTransfer.{i}." style="html=1;" parent="sZ3u7BNd2FGb5M5X52Cd-1" vertex="1">
          <mxGeometry x="91.19" y="100" width="187.5" height="30" as="geometry" />
        </mxCell>
        <mxCell id="Wbn9vYfk1FPGFbjwdXey-11" value="" style="edgeStyle=orthogonalEdgeStyle;rounded=0;orthogonalLoop=1;jettySize=auto;html=1;" parent="sZ3u7BNd2FGb5M5X52Cd-1" source="Wbn9vYfk1FPGFbjwdXey-8" target="Wbn9vYfk1FPGFbjwdXey-10" edge="1">
          <mxGeometry relative="1" as="geometry" />
        </mxCell>
        <mxCell id="Wbn9vYfk1FPGFbjwdXey-13" value="" style="edgeStyle=orthogonalEdgeStyle;rounded=0;orthogonalLoop=1;jettySize=auto;html=1;" parent="sZ3u7BNd2FGb5M5X52Cd-1" source="Wbn9vYfk1FPGFbjwdXey-8" target="Wbn9vYfk1FPGFbjwdXey-12" edge="1">
          <mxGeometry relative="1" as="geometry" />
        </mxCell>
        <mxCell id="Wbn9vYfk1FPGFbjwdXey-8" value="check instance failed" style="html=1;" parent="sZ3u7BNd2FGb5M5X52Cd-1" vertex="1">
          <mxGeometry x="123.07" y="150" width="123.75" height="25" as="geometry" />
        </mxCell>
        <mxCell id="Wbn9vYfk1FPGFbjwdXey-10" value="signal TransferComplete!" style="html=1;" parent="sZ3u7BNd2FGb5M5X52Cd-1" vertex="1">
          <mxGeometry x="326.82" y="150" width="148.12" height="25" as="geometry" />
        </mxCell>
        <mxCell id="Wbn9vYfk1FPGFbjwdXey-19" value="" style="edgeStyle=orthogonalEdgeStyle;rounded=0;orthogonalLoop=1;jettySize=auto;html=1;" parent="sZ3u7BNd2FGb5M5X52Cd-1" source="Wbn9vYfk1FPGFbjwdXey-12" target="Wbn9vYfk1FPGFbjwdXey-18" edge="1">
          <mxGeometry relative="1" as="geometry" />
        </mxCell>
        <mxCell id="Wbn9vYfk1FPGFbjwdXey-12" value="rebuild queue" style="html=1;" parent="sZ3u7BNd2FGb5M5X52Cd-1" vertex="1">
          <mxGeometry x="137.8" y="195" width="94.27" height="35" as="geometry" />
        </mxCell>
        <mxCell id="Wbn9vYfk1FPGFbjwdXey-16" value="MSG&lt;br&gt;start transfer" style="html=1;verticalAlign=bottom;startArrow=oval;startFill=1;endArrow=block;startSize=8;entryX=0;entryY=0.5;entryDx=0;entryDy=0;strokeColor=#FF3333;" parent="sZ3u7BNd2FGb5M5X52Cd-1" target="Wbn9vYfk1FPGFbjwdXey-20" edge="1">
          <mxGeometry width="60" relative="1" as="geometry">
            <mxPoint x="39.94" y="323" as="sourcePoint" />
            <mxPoint x="103.25999999999993" y="300.1600000000001" as="targetPoint" />
          </mxGeometry>
        </mxCell>
        <mxCell id="Wbn9vYfk1FPGFbjwdXey-21" value="" style="edgeStyle=orthogonalEdgeStyle;rounded=0;orthogonalLoop=1;jettySize=auto;html=1;" parent="sZ3u7BNd2FGb5M5X52Cd-1" source="Wbn9vYfk1FPGFbjwdXey-18" target="Wbn9vYfk1FPGFbjwdXey-20" edge="1">
          <mxGeometry relative="1" as="geometry" />
        </mxCell>
        <mxCell id="Wbn9vYfk1FPGFbjwdXey-18" value="main loop start" style="html=1;" parent="sZ3u7BNd2FGb5M5X52Cd-1" vertex="1">
          <mxGeometry x="128.21999999999997" y="250" width="113.44" height="35" as="geometry" />
        </mxCell>
        <mxCell id="Wbn9vYfk1FPGFbjwdXey-33" value="" style="edgeStyle=orthogonalEdgeStyle;rounded=0;orthogonalLoop=1;jettySize=auto;html=1;" parent="sZ3u7BNd2FGb5M5X52Cd-1" source="Wbn9vYfk1FPGFbjwdXey-20" target="Wbn9vYfk1FPGFbjwdXey-22" edge="1">
          <mxGeometry relative="1" as="geometry" />
        </mxCell>
        <mxCell id="Wbn9vYfk1FPGFbjwdXey-20" value="update socket set" style="html=1;" parent="sZ3u7BNd2FGb5M5X52Cd-1" vertex="1">
          <mxGeometry x="128.22999999999996" y="305" width="113.44" height="35" as="geometry" />
        </mxCell>
        <mxCell id="Wbn9vYfk1FPGFbjwdXey-24" style="edgeStyle=orthogonalEdgeStyle;rounded=0;orthogonalLoop=1;jettySize=auto;html=1;entryX=0;entryY=0.5;entryDx=0;entryDy=0;exitX=0.149;exitY=1.017;exitDx=0;exitDy=0;exitPerimeter=0;" parent="sZ3u7BNd2FGb5M5X52Cd-1" source="Wbn9vYfk1FPGFbjwdXey-22" target="Wbn9vYfk1FPGFbjwdXey-18" edge="1">
          <mxGeometry relative="1" as="geometry">
            <mxPoint x="129.94" y="460" as="sourcePoint" />
            <Array as="points">
              <mxPoint x="144.94" y="470" />
              <mxPoint x="24.939999999999998" y="470" />
              <mxPoint x="24.939999999999998" y="268" />
            </Array>
          </mxGeometry>
        </mxCell>
        <mxCell id="Wbn9vYfk1FPGFbjwdXey-95" value="" style="edgeStyle=orthogonalEdgeStyle;rounded=0;orthogonalLoop=1;jettySize=auto;html=1;strokeColor=#000000;" parent="sZ3u7BNd2FGb5M5X52Cd-1" source="Wbn9vYfk1FPGFbjwdXey-22" target="Wbn9vYfk1FPGFbjwdXey-94" edge="1">
          <mxGeometry relative="1" as="geometry" />
        </mxCell>
        <mxCell id="Wbn9vYfk1FPGFbjwdXey-22" value="FileTransfer perform" style="html=1;" parent="sZ3u7BNd2FGb5M5X52Cd-1" vertex="1">
          <mxGeometry x="128.23" y="410" width="113.44" height="40" as="geometry" />
        </mxCell>
        <mxCell id="Wbn9vYfk1FPGFbjwdXey-113" value="" style="edgeStyle=orthogonalEdgeStyle;rounded=0;orthogonalLoop=1;jettySize=auto;html=1;strokeColor=#000000;entryX=0.5;entryY=0;entryDx=0;entryDy=0;" parent="sZ3u7BNd2FGb5M5X52Cd-1" source="Wbn9vYfk1FPGFbjwdXey-27" target="Wbn9vYfk1FPGFbjwdXey-189" edge="1">
          <mxGeometry relative="1" as="geometry">
            <mxPoint x="380" y="765" as="targetPoint" />
          </mxGeometry>
        </mxCell>
        <mxCell id="Wbn9vYfk1FPGFbjwdXey-114" value="IDLE" style="edgeLabel;html=1;align=center;verticalAlign=middle;resizable=0;points=[];" parent="Wbn9vYfk1FPGFbjwdXey-113" vertex="1" connectable="0">
          <mxGeometry x="-0.6626" y="-1" relative="1" as="geometry">
            <mxPoint x="1" y="1.2800000000000002" as="offset" />
          </mxGeometry>
        </mxCell>
        <mxCell id="Wbn9vYfk1FPGFbjwdXey-115" style="edgeStyle=orthogonalEdgeStyle;rounded=0;orthogonalLoop=1;jettySize=auto;html=1;exitX=0;exitY=0.5;exitDx=0;exitDy=0;entryX=0.607;entryY=0.997;entryDx=0;entryDy=0;entryPerimeter=0;strokeColor=#000000;" parent="sZ3u7BNd2FGb5M5X52Cd-1" source="Wbn9vYfk1FPGFbjwdXey-27" target="Wbn9vYfk1FPGFbjwdXey-22" edge="1">
          <mxGeometry relative="1" as="geometry" />
        </mxCell>
        <mxCell id="Wbn9vYfk1FPGFbjwdXey-116" value="PROCESS" style="edgeLabel;html=1;align=center;verticalAlign=middle;resizable=0;points=[];" parent="Wbn9vYfk1FPGFbjwdXey-115" vertex="1" connectable="0">
          <mxGeometry x="-0.6033" relative="1" as="geometry">
            <mxPoint x="32.9" y="1.58" as="offset" />
          </mxGeometry>
        </mxCell>
        <mxCell id="Wbn9vYfk1FPGFbjwdXey-27" value="check running&lt;br&gt;state" style="rhombus;whiteSpace=wrap;html=1;" parent="sZ3u7BNd2FGb5M5X52Cd-1" vertex="1">
          <mxGeometry x="265.8" y="712.5" width="138.12" height="47.5" as="geometry" />
        </mxCell>
        <mxCell id="Wbn9vYfk1FPGFbjwdXey-93" value="" style="edgeStyle=orthogonalEdgeStyle;rounded=0;orthogonalLoop=1;jettySize=auto;html=1;entryX=0;entryY=0.5;entryDx=0;entryDy=0;" parent="sZ3u7BNd2FGb5M5X52Cd-1" source="Wbn9vYfk1FPGFbjwdXey-32" target="Wbn9vYfk1FPGFbjwdXey-182" edge="1">
          <mxGeometry relative="1" as="geometry">
            <mxPoint x="274.86" y="377.48837209302326" as="targetPoint" />
          </mxGeometry>
        </mxCell>
        <mxCell id="Wbn9vYfk1FPGFbjwdXey-32" value="add transfer task" style="html=1;" parent="sZ3u7BNd2FGb5M5X52Cd-1" vertex="1">
          <mxGeometry x="128.21999999999997" y="353.44" width="113.44" height="35" as="geometry" />
        </mxCell>
        <mxCell id="Wbn9vYfk1FPGFbjwdXey-103" value="" style="edgeStyle=orthogonalEdgeStyle;rounded=0;orthogonalLoop=1;jettySize=auto;html=1;strokeColor=#000000;" parent="sZ3u7BNd2FGb5M5X52Cd-1" source="Wbn9vYfk1FPGFbjwdXey-94" target="Wbn9vYfk1FPGFbjwdXey-102" edge="1">
          <mxGeometry relative="1" as="geometry" />
        </mxCell>
        <mxCell id="Wbn9vYfk1FPGFbjwdXey-94" value="curl_multi_perform" style="whiteSpace=wrap;html=1;" parent="sZ3u7BNd2FGb5M5X52Cd-1" vertex="1">
          <mxGeometry x="274.86" y="452.5" width="120" height="20" as="geometry" />
        </mxCell>
        <mxCell id="Wbn9vYfk1FPGFbjwdXey-101" value="" style="edgeStyle=orthogonalEdgeStyle;rounded=0;orthogonalLoop=1;jettySize=auto;html=1;strokeColor=#000000;" parent="sZ3u7BNd2FGb5M5X52Cd-1" source="Wbn9vYfk1FPGFbjwdXey-96" target="Wbn9vYfk1FPGFbjwdXey-100" edge="1">
          <mxGeometry relative="1" as="geometry" />
        </mxCell>
        <mxCell id="Wbn9vYfk1FPGFbjwdXey-96" value="curl_multi_info_read" style="whiteSpace=wrap;html=1;" parent="sZ3u7BNd2FGb5M5X52Cd-1" vertex="1">
          <mxGeometry x="274.86" y="555" width="120" height="20" as="geometry" />
        </mxCell>
        <mxCell id="Wbn9vYfk1FPGFbjwdXey-187" style="edgeStyle=orthogonalEdgeStyle;rounded=0;orthogonalLoop=1;jettySize=auto;html=1;entryX=0.5;entryY=0;entryDx=0;entryDy=0;strokeColor=#000000;" parent="sZ3u7BNd2FGb5M5X52Cd-1" source="Wbn9vYfk1FPGFbjwdXey-100" target="Wbn9vYfk1FPGFbjwdXey-185" edge="1">
          <mxGeometry relative="1" as="geometry" />
        </mxCell>
        <mxCell id="Wbn9vYfk1FPGFbjwdXey-100" value="update FileTransferItem info" style="whiteSpace=wrap;html=1;" parent="sZ3u7BNd2FGb5M5X52Cd-1" vertex="1">
          <mxGeometry x="274.86" y="590" width="120" height="35" as="geometry" />
        </mxCell>
        <mxCell id="Wbn9vYfk1FPGFbjwdXey-104" value="" style="edgeStyle=orthogonalEdgeStyle;rounded=0;orthogonalLoop=1;jettySize=auto;html=1;strokeColor=#000000;entryX=0.5;entryY=0;entryDx=0;entryDy=0;" parent="sZ3u7BNd2FGb5M5X52Cd-1" source="Wbn9vYfk1FPGFbjwdXey-102" target="Wbn9vYfk1FPGFbjwdXey-96" edge="1">
          <mxGeometry relative="1" as="geometry" />
        </mxCell>
        <mxCell id="Wbn9vYfk1FPGFbjwdXey-105" value="Y" style="edgeLabel;html=1;align=center;verticalAlign=middle;resizable=0;points=[];" parent="Wbn9vYfk1FPGFbjwdXey-104" vertex="1" connectable="0">
          <mxGeometry x="-0.2011" y="2" relative="1" as="geometry">
            <mxPoint x="-2.04" y="-6.52" as="offset" />
          </mxGeometry>
        </mxCell>
        <mxCell id="Wbn9vYfk1FPGFbjwdXey-107" style="edgeStyle=orthogonalEdgeStyle;rounded=0;orthogonalLoop=1;jettySize=auto;html=1;exitX=0;exitY=0.5;exitDx=0;exitDy=0;entryX=0.75;entryY=1;entryDx=0;entryDy=0;strokeColor=#000000;" parent="sZ3u7BNd2FGb5M5X52Cd-1" source="Wbn9vYfk1FPGFbjwdXey-102" target="Wbn9vYfk1FPGFbjwdXey-22" edge="1">
          <mxGeometry relative="1" as="geometry" />
        </mxCell>
        <mxCell id="Wbn9vYfk1FPGFbjwdXey-108" value="N" style="edgeLabel;html=1;align=center;verticalAlign=middle;resizable=0;points=[];" parent="Wbn9vYfk1FPGFbjwdXey-107" vertex="1" connectable="0">
          <mxGeometry x="-0.5388" relative="1" as="geometry">
            <mxPoint as="offset" />
          </mxGeometry>
        </mxCell>
        <mxCell id="Wbn9vYfk1FPGFbjwdXey-102" value="any done?" style="rhombus;whiteSpace=wrap;html=1;" parent="sZ3u7BNd2FGb5M5X52Cd-1" vertex="1">
          <mxGeometry x="294.86" y="492.5" width="80" height="30" as="geometry" />
        </mxCell>
        <mxCell id="Wbn9vYfk1FPGFbjwdXey-112" value="" style="edgeStyle=orthogonalEdgeStyle;rounded=0;orthogonalLoop=1;jettySize=auto;html=1;strokeColor=#000000;" parent="sZ3u7BNd2FGb5M5X52Cd-1" source="Wbn9vYfk1FPGFbjwdXey-111" target="Wbn9vYfk1FPGFbjwdXey-22" edge="1">
          <mxGeometry relative="1" as="geometry">
            <Array as="points">
              <mxPoint x="545" y="420" />
            </Array>
          </mxGeometry>
        </mxCell>
        <mxCell id="Wbn9vYfk1FPGFbjwdXey-111" value="libcurl_XFER_progress_cb" style="whiteSpace=wrap;html=1;" parent="sZ3u7BNd2FGb5M5X52Cd-1" vertex="1">
          <mxGeometry x="400" y="410" width="150" height="20" as="geometry" />
        </mxCell>
        <mxCell id="Wbn9vYfk1FPGFbjwdXey-122" value="" style="edgeStyle=orthogonalEdgeStyle;rounded=0;orthogonalLoop=1;jettySize=auto;html=1;strokeColor=#000000;" parent="sZ3u7BNd2FGb5M5X52Cd-1" source="Wbn9vYfk1FPGFbjwdXey-119" target="Wbn9vYfk1FPGFbjwdXey-121" edge="1">
          <mxGeometry relative="1" as="geometry" />
        </mxCell>
        <mxCell id="Wbn9vYfk1FPGFbjwdXey-123" value="NOT NULL" style="edgeLabel;html=1;align=center;verticalAlign=middle;resizable=0;points=[];" parent="Wbn9vYfk1FPGFbjwdXey-122" vertex="1" connectable="0">
          <mxGeometry x="-0.3687" y="-2" relative="1" as="geometry">
            <mxPoint as="offset" />
          </mxGeometry>
        </mxCell>
        <mxCell id="Wbn9vYfk1FPGFbjwdXey-126" value="" style="edgeStyle=orthogonalEdgeStyle;rounded=0;orthogonalLoop=1;jettySize=auto;html=1;strokeColor=#000000;" parent="sZ3u7BNd2FGb5M5X52Cd-1" source="Wbn9vYfk1FPGFbjwdXey-119" target="Wbn9vYfk1FPGFbjwdXey-125" edge="1">
          <mxGeometry relative="1" as="geometry" />
        </mxCell>
        <mxCell id="Wbn9vYfk1FPGFbjwdXey-127" value="NULL" style="edgeLabel;html=1;align=center;verticalAlign=middle;resizable=0;points=[];" parent="Wbn9vYfk1FPGFbjwdXey-126" vertex="1" connectable="0">
          <mxGeometry x="-0.2047" y="1" relative="1" as="geometry">
            <mxPoint as="offset" />
          </mxGeometry>
        </mxCell>
        <mxCell id="Wbn9vYfk1FPGFbjwdXey-119" value="high_down_queue?&lt;span style=&quot;color: rgba(0 , 0 , 0 , 0) ; font-family: monospace ; font-size: 0px&quot;&gt;nuu%3CmxGraphModel%3E%3Croot%3E%3CmxCell%20id%3D%220%22%2F%3E%3CmxCell%20id%3D%221%22%20parent%3D%220%22%2F%3E%3CmxCell%20id%3D%222%22%20value%3D%22check%20running%26lt%3Bbr%26gt%3Bstate%22%20style%3D%22rhombus%3BwhiteSpace%3Dwrap%3Bhtml%3D1%3B%22%20vertex%3D%221%22%20parent%3D%221%22%3E%3CmxGeometry%20x%3D%22300%22%20y%3D%22660%22%20width%3D%22138.12%22%20height%3D%2247.5%22%20as%3D%22geometry%22%2F%3E%3C%2FmxCell%3E%3C%2Froot%3E%3C%2FmxGraphModel%3E&lt;/span&gt;&lt;span style=&quot;color: rgba(0 , 0 , 0 , 0) ; font-family: monospace ; font-size: 0px&quot;&gt;%3CmxGraphModel%3E%3Croot%3E%3CmxCell%20id%3D%220%22%2F%3E%3CmxCell%20id%3D%221%22%20parent%3D%220%22%2F%3E%3CmxCell%20id%3D%222%22%20value%3D%22check%20running%26lt%3Bbr%26gt%3Bstate%22%20style%3D%22rhombus%3BwhiteSpace%3Dwrap%3Bhtml%3D1%3B%22%20vertex%3D%221%22%20parent%3D%221%22%3E%3CmxGeometry%20x%3D%22300%22%20y%3D%22660%22%20width%3D%22138.12%22%20height%3D%2247.5%22%20as%3D%22geometry%22%2F%3E%3C%2FmxCell%3E%3C%2Froot%3E%3C%2FmxGraphModel%3E&lt;/span&gt;&lt;span style=&quot;color: rgba(0 , 0 , 0 , 0) ; font-family: monospace ; font-size: 0px&quot;&gt;%3CmxGraphModel%3E%3Croot%3E%3CmxCell%20id%3D%220%22%2F%3E%3CmxCell%20id%3D%221%22%20parent%3D%220%22%2F%3E%3CmxCell%20id%3D%222%22%20value%3D%22check%20running%26lt%3Bbr%26gt%3Bstate%22%20style%3D%22rhombus%3BwhiteSpace%3Dwrap%3Bhtml%3D1%3B%22%20vertex%3D%221%22%20parent%3D%221%22%3E%3CmxGeometry%20x%3D%22300%22%20y%3D%22660%22%20width%3D%22138.12%22%20height%3D%2247.5%22%20as%3D%22geometry%22%2F%3E%3C%2FmxCell%3E%3C%2Froot%3E%3C%2FmxGraphModel%3Es&lt;br&gt;asd&lt;/span&gt;" style="rhombus;whiteSpace=wrap;html=1;" parent="sZ3u7BNd2FGb5M5X52Cd-1" vertex="1">
          <mxGeometry x="265.8" y="900" width="138.12" height="47.5" as="geometry" />
        </mxCell>
        <mxCell id="Wbn9vYfk1FPGFbjwdXey-124" style="edgeStyle=orthogonalEdgeStyle;rounded=0;orthogonalLoop=1;jettySize=auto;html=1;exitX=0;exitY=0.5;exitDx=0;exitDy=0;strokeColor=#000000;entryX=0.455;entryY=0.979;entryDx=0;entryDy=0;entryPerimeter=0;" parent="sZ3u7BNd2FGb5M5X52Cd-1" source="Wbn9vYfk1FPGFbjwdXey-121" target="Wbn9vYfk1FPGFbjwdXey-22" edge="1">
          <mxGeometry relative="1" as="geometry">
            <mxPoint x="179.94" y="485" as="targetPoint" />
            <Array as="points">
              <mxPoint x="180" y="993" />
            </Array>
          </mxGeometry>
        </mxCell>
        <mxCell id="Wbn9vYfk1FPGFbjwdXey-121" value="pop item to perform" style="whiteSpace=wrap;html=1;" parent="sZ3u7BNd2FGb5M5X52Cd-1" vertex="1">
          <mxGeometry x="274.86" y="980" width="120" height="25" as="geometry" />
        </mxCell>
        <mxCell id="Wbn9vYfk1FPGFbjwdXey-129" value="" style="edgeStyle=orthogonalEdgeStyle;rounded=0;orthogonalLoop=1;jettySize=auto;html=1;strokeColor=#000000;" parent="sZ3u7BNd2FGb5M5X52Cd-1" source="Wbn9vYfk1FPGFbjwdXey-125" target="Wbn9vYfk1FPGFbjwdXey-128" edge="1">
          <mxGeometry relative="1" as="geometry" />
        </mxCell>
        <mxCell id="Wbn9vYfk1FPGFbjwdXey-130" value="NOT NULL" style="edgeLabel;html=1;align=center;verticalAlign=middle;resizable=0;points=[];" parent="Wbn9vYfk1FPGFbjwdXey-129" vertex="1" connectable="0">
          <mxGeometry x="-0.3198" y="-2" relative="1" as="geometry">
            <mxPoint as="offset" />
          </mxGeometry>
        </mxCell>
        <mxCell id="Wbn9vYfk1FPGFbjwdXey-125" value="low_down_queue?&lt;span style=&quot;color: rgba(0 , 0 , 0 , 0) ; font-family: monospace ; font-size: 0px&quot;&gt;nuu%3CmxGraphModel%3E%3Croot%3E%3CmxCell%20id%3D%220%22%2F%3E%3CmxCell%20id%3D%221%22%20parent%3D%220%22%2F%3E%3CmxCell%20id%3D%222%22%20value%3D%22check%20running%26lt%3Bbr%26gt%3Bstate%22%20style%3D%22rhombus%3BwhiteSpace%3Dwrap%3Bhtml%3D1%3B%22%20vertex%3D%221%22%20parent%3D%221%22%3E%3CmxGeometry%20x%3D%22300%22%20y%3D%22660%22%20width%3D%22138.12%22%20height%3D%2247.5%22%20as%3D%22geometry%22%2F%3E%3C%2FmxCell%3E%3C%2Froot%3E%3C%2FmxGraphModel%3E&lt;/span&gt;&lt;span style=&quot;color: rgba(0 , 0 , 0 , 0) ; font-family: monospace ; font-size: 0px&quot;&gt;%3CmxGraphModel%3E%3Croot%3E%3CmxCell%20id%3D%220%22%2F%3E%3CmxCell%20id%3D%221%22%20parent%3D%220%22%2F%3E%3CmxCell%20id%3D%222%22%20value%3D%22check%20running%26lt%3Bbr%26gt%3Bstate%22%20style%3D%22rhombus%3BwhiteSpace%3Dwrap%3Bhtml%3D1%3B%22%20vertex%3D%221%22%20parent%3D%221%22%3E%3CmxGeometry%20x%3D%22300%22%20y%3D%22660%22%20width%3D%22138.12%22%20height%3D%2247.5%22%20as%3D%22geometry%22%2F%3E%3C%2FmxCell%3E%3C%2Froot%3E%3C%2FmxGraphModel%3E&lt;/span&gt;&lt;span style=&quot;color: rgba(0 , 0 , 0 , 0) ; font-family: monospace ; font-size: 0px&quot;&gt;%3CmxGraphModel%3E%3Croot%3E%3CmxCell%20id%3D%220%22%2F%3E%3CmxCell%20id%3D%221%22%20parent%3D%220%22%2F%3E%3CmxCell%20id%3D%222%22%20value%3D%22check%20running%26lt%3Bbr%26gt%3Bstate%22%20style%3D%22rhombus%3BwhiteSpace%3Dwrap%3Bhtml%3D1%3B%22%20vertex%3D%221%22%20parent%3D%221%22%3E%3CmxGeometry%20x%3D%22300%22%20y%3D%22660%22%20width%3D%22138.12%22%20height%3D%2247.5%22%20as%3D%22geometry%22%2F%3E%3C%2FmxCell%3E%3C%2Froot%3E%3C%2FmxGraphModel%3Es&lt;br&gt;asd&lt;/span&gt;" style="rhombus;whiteSpace=wrap;html=1;" parent="sZ3u7BNd2FGb5M5X52Cd-1" vertex="1">
          <mxGeometry x="456.7400000000001" y="900" width="138.12" height="47.5" as="geometry" />
        </mxCell>
        <mxCell id="Wbn9vYfk1FPGFbjwdXey-131" style="edgeStyle=orthogonalEdgeStyle;rounded=0;orthogonalLoop=1;jettySize=auto;html=1;exitX=0;exitY=0.5;exitDx=0;exitDy=0;entryX=0.303;entryY=0.987;entryDx=0;entryDy=0;entryPerimeter=0;strokeColor=#000000;" parent="sZ3u7BNd2FGb5M5X52Cd-1" source="Wbn9vYfk1FPGFbjwdXey-128" target="Wbn9vYfk1FPGFbjwdXey-22" edge="1">
          <mxGeometry relative="1" as="geometry" />
        </mxCell>
        <mxCell id="Wbn9vYfk1FPGFbjwdXey-128" value="pop all to perform" style="whiteSpace=wrap;html=1;" parent="sZ3u7BNd2FGb5M5X52Cd-1" vertex="1">
          <mxGeometry x="465.80000000000007" y="1010" width="120" height="25" as="geometry" />
        </mxCell>
        <mxCell id="Wbn9vYfk1FPGFbjwdXey-137" style="edgeStyle=orthogonalEdgeStyle;rounded=0;orthogonalLoop=1;jettySize=auto;html=1;exitX=0.5;exitY=1;exitDx=0;exitDy=0;entryX=0.5;entryY=0;entryDx=0;entryDy=0;strokeColor=#000000;" parent="sZ3u7BNd2FGb5M5X52Cd-1" source="Wbn9vYfk1FPGFbjwdXey-134" target="Wbn9vYfk1FPGFbjwdXey-27" edge="1">
          <mxGeometry relative="1" as="geometry" />
        </mxCell>
        <mxCell id="Wbn9vYfk1FPGFbjwdXey-139" value="" style="edgeStyle=orthogonalEdgeStyle;rounded=0;orthogonalLoop=1;jettySize=auto;html=1;strokeColor=#000000;entryX=0;entryY=0.5;entryDx=0;entryDy=0;exitX=1;exitY=0.5;exitDx=0;exitDy=0;" parent="sZ3u7BNd2FGb5M5X52Cd-1" source="Wbn9vYfk1FPGFbjwdXey-100" target="Wbn9vYfk1FPGFbjwdXey-138" edge="1">
          <mxGeometry relative="1" as="geometry">
            <Array as="points">
              <mxPoint x="428" y="608" />
            </Array>
          </mxGeometry>
        </mxCell>
        <mxCell id="Wbn9vYfk1FPGFbjwdXey-142" value="" style="edgeStyle=orthogonalEdgeStyle;rounded=0;orthogonalLoop=1;jettySize=auto;html=1;strokeColor=#000000;" parent="sZ3u7BNd2FGb5M5X52Cd-1" source="Wbn9vYfk1FPGFbjwdXey-134" target="Wbn9vYfk1FPGFbjwdXey-141" edge="1">
          <mxGeometry relative="1" as="geometry" />
        </mxCell>
        <mxCell id="Wbn9vYfk1FPGFbjwdXey-134" value="do_active_cb" style="whiteSpace=wrap;html=1;strokeColor=#FF3333;" parent="sZ3u7BNd2FGb5M5X52Cd-1" vertex="1">
          <mxGeometry x="274.86" y="675" width="120" height="22.5" as="geometry" />
        </mxCell>
        <mxCell id="Wbn9vYfk1FPGFbjwdXey-138" value="signal TransferComplete!" style="html=1;" parent="sZ3u7BNd2FGb5M5X52Cd-1" vertex="1">
          <mxGeometry x="427.7600000000001" y="595" width="148.12" height="25" as="geometry" />
        </mxCell>
        <mxCell id="Wbn9vYfk1FPGFbjwdXey-141" value="signal OperationComplete()" style="html=1;" parent="sZ3u7BNd2FGb5M5X52Cd-1" vertex="1">
          <mxGeometry x="420.88" y="673.75" width="155" height="25" as="geometry" />
        </mxCell>
        <mxCell id="Wbn9vYfk1FPGFbjwdXey-143" value="FileTransferItem" style="swimlane;childLayout=stackLayout;horizontal=1;startSize=30;horizontalStack=0;rounded=1;fontSize=14;fontStyle=0;strokeWidth=2;resizeParent=0;resizeLast=1;shadow=0;dashed=0;align=center;strokeColor=#97D077;" parent="sZ3u7BNd2FGb5M5X52Cd-1" vertex="1">
          <mxGeometry x="630" y="520" width="160" height="310" as="geometry">
            <mxRectangle x="580" y="55" width="155" height="30" as="alternateBounds" />
          </mxGeometry>
        </mxCell>
        <mxCell id="Wbn9vYfk1FPGFbjwdXey-144" value="+CURL*&#xa;+URL&#xa;+RequestInstance&#xa;+AutoActivate&#xa;+TransferType&#xa;+Username&#xa;+Password&#xa;+FileSize&#xa;+CheckSumAlgotithm&#xa;+CheckSum&#xa;+DownloadTotal&#xa;+DownloadNow&#xa;+UploadTotal&#xa;+UploadNow&#xa;+ScheduleTime&#xa;+StartTime&#xa;+CompleteTime&#xa;+FaultCode&#xa;+FaultString" style="align=left;strokeColor=none;fillColor=none;spacingLeft=4;fontSize=12;verticalAlign=top;resizable=0;rotatable=0;part=1;" parent="Wbn9vYfk1FPGFbjwdXey-143" vertex="1">
          <mxGeometry y="30" width="160" height="280" as="geometry" />
        </mxCell>
        <mxCell id="Wbn9vYfk1FPGFbjwdXey-178" value="Internal.FileTransfer.{i}." style="swimlane;childLayout=stackLayout;horizontal=1;startSize=30;horizontalStack=0;rounded=1;fontSize=14;fontStyle=0;strokeWidth=2;resizeParent=0;resizeLast=1;shadow=0;dashed=0;align=center;strokeColor=#97D077;" parent="sZ3u7BNd2FGb5M5X52Cd-1" vertex="1">
          <mxGeometry x="565" y="80" width="160" height="295" as="geometry">
            <mxRectangle x="580" y="55" width="155" height="30" as="alternateBounds" />
          </mxGeometry>
        </mxCell>
        <mxCell id="Wbn9vYfk1FPGFbjwdXey-179" value="URL&#xa;RequestInstance&#xa;TransferType&#xa;AutoActivate&#xa;Username&#xa;Password&#xa;FileSize&#xa;CheckSumAlgotithm&#xa;CheckSum&#xa;DownloadTotal&#xa;DownloadNow&#xa;UploadTotal&#xa;UploadNow&#xa;ScheduleTime&#xa;StartTime&#xa;CompleteTime&#xa;FaultCode&#xa;FaultString" style="align=left;strokeColor=none;fillColor=none;spacingLeft=4;fontSize=12;verticalAlign=top;resizable=0;rotatable=0;part=1;" parent="Wbn9vYfk1FPGFbjwdXey-178" vertex="1">
          <mxGeometry y="30" width="160" height="265" as="geometry" />
        </mxCell>
        <mxCell id="Wbn9vYfk1FPGFbjwdXey-180" value="" style="edgeStyle=entityRelationEdgeStyle;fontSize=12;html=1;endArrow=ERone;endFill=1;entryX=0;entryY=0.065;entryDx=0;entryDy=0;entryPerimeter=0;strokeColor=#97D077;" parent="sZ3u7BNd2FGb5M5X52Cd-1" source="Wbn9vYfk1FPGFbjwdXey-3" target="Wbn9vYfk1FPGFbjwdXey-178" edge="1">
          <mxGeometry width="100" height="100" relative="1" as="geometry">
            <mxPoint x="590" y="300" as="sourcePoint" />
            <mxPoint x="690" y="200" as="targetPoint" />
          </mxGeometry>
        </mxCell>
        <mxCell id="Wbn9vYfk1FPGFbjwdXey-181" value="" style="edgeStyle=entityRelationEdgeStyle;fontSize=12;html=1;endArrow=ERone;endFill=1;exitX=1;exitY=0;exitDx=0;exitDy=0;entryX=-0.005;entryY=0.068;entryDx=0;entryDy=0;entryPerimeter=0;strokeColor=#97D077;" parent="sZ3u7BNd2FGb5M5X52Cd-1" source="Wbn9vYfk1FPGFbjwdXey-100" target="Wbn9vYfk1FPGFbjwdXey-143" edge="1">
          <mxGeometry width="100" height="100" relative="1" as="geometry">
            <mxPoint x="480" y="590" as="sourcePoint" />
            <mxPoint x="580" y="490" as="targetPoint" />
          </mxGeometry>
        </mxCell>
        <mxCell id="Wbn9vYfk1FPGFbjwdXey-184" value="" style="edgeStyle=orthogonalEdgeStyle;rounded=0;orthogonalLoop=1;jettySize=auto;html=1;strokeColor=#000000;" parent="sZ3u7BNd2FGb5M5X52Cd-1" source="Wbn9vYfk1FPGFbjwdXey-182" target="Wbn9vYfk1FPGFbjwdXey-183" edge="1">
          <mxGeometry relative="1" as="geometry" />
        </mxCell>
        <mxCell id="Wbn9vYfk1FPGFbjwdXey-182" value="do_pre_active_cb" style="whiteSpace=wrap;html=1;strokeColor=#FF3333;" parent="sZ3u7BNd2FGb5M5X52Cd-1" vertex="1">
          <mxGeometry x="274.86" y="355" width="120" height="31.88" as="geometry" />
        </mxCell>
        <mxCell id="Wbn9vYfk1FPGFbjwdXey-183" value="check task push&lt;br&gt;up_queue&lt;br&gt;high_down_queue&lt;br&gt;low_down_queue" style="whiteSpace=wrap;html=1;" parent="sZ3u7BNd2FGb5M5X52Cd-1" vertex="1">
          <mxGeometry x="420.88" y="340" width="120" height="61.87" as="geometry" />
        </mxCell>
        <mxCell id="Wbn9vYfk1FPGFbjwdXey-188" style="edgeStyle=orthogonalEdgeStyle;rounded=0;orthogonalLoop=1;jettySize=auto;html=1;exitX=0.5;exitY=1;exitDx=0;exitDy=0;entryX=0.5;entryY=0;entryDx=0;entryDy=0;strokeColor=#000000;" parent="sZ3u7BNd2FGb5M5X52Cd-1" source="Wbn9vYfk1FPGFbjwdXey-185" target="Wbn9vYfk1FPGFbjwdXey-134" edge="1">
          <mxGeometry relative="1" as="geometry" />
        </mxCell>
        <mxCell id="Wbn9vYfk1FPGFbjwdXey-185" value="do_transfer_done_cb" style="whiteSpace=wrap;html=1;strokeColor=#FF3333;" parent="sZ3u7BNd2FGb5M5X52Cd-1" vertex="1">
          <mxGeometry x="274.86" y="640" width="120" height="22.5" as="geometry" />
        </mxCell>
        <mxCell id="Wbn9vYfk1FPGFbjwdXey-191" style="edgeStyle=orthogonalEdgeStyle;rounded=0;orthogonalLoop=1;jettySize=auto;html=1;exitX=0.5;exitY=1;exitDx=0;exitDy=0;entryX=0.5;entryY=0;entryDx=0;entryDy=0;strokeColor=#000000;" parent="sZ3u7BNd2FGb5M5X52Cd-1" source="Wbn9vYfk1FPGFbjwdXey-189" target="Wbn9vYfk1FPGFbjwdXey-190" edge="1">
          <mxGeometry relative="1" as="geometry" />
        </mxCell>
        <mxCell id="Wbn9vYfk1FPGFbjwdXey-195" value="NOT NULL" style="edgeLabel;html=1;align=center;verticalAlign=middle;resizable=0;points=[];" parent="Wbn9vYfk1FPGFbjwdXey-191" vertex="1" connectable="0">
          <mxGeometry x="-0.6594" y="-1" relative="1" as="geometry">
            <mxPoint x="1" y="5.75" as="offset" />
          </mxGeometry>
        </mxCell>
        <mxCell id="Wbn9vYfk1FPGFbjwdXey-193" style="edgeStyle=orthogonalEdgeStyle;rounded=0;orthogonalLoop=1;jettySize=auto;html=1;exitX=1;exitY=0.5;exitDx=0;exitDy=0;entryX=0.5;entryY=0;entryDx=0;entryDy=0;strokeColor=#000000;" parent="sZ3u7BNd2FGb5M5X52Cd-1" source="Wbn9vYfk1FPGFbjwdXey-189" target="Wbn9vYfk1FPGFbjwdXey-119" edge="1">
          <mxGeometry relative="1" as="geometry">
            <Array as="points">
              <mxPoint x="424" y="806" />
              <mxPoint x="424" y="895" />
              <mxPoint x="335" y="895" />
            </Array>
          </mxGeometry>
        </mxCell>
        <mxCell id="Wbn9vYfk1FPGFbjwdXey-194" value="NULL" style="edgeLabel;html=1;align=center;verticalAlign=middle;resizable=0;points=[];" parent="Wbn9vYfk1FPGFbjwdXey-193" vertex="1" connectable="0">
          <mxGeometry x="-0.612" relative="1" as="geometry">
            <mxPoint x="1" y="9.45" as="offset" />
          </mxGeometry>
        </mxCell>
        <mxCell id="Wbn9vYfk1FPGFbjwdXey-189" value="up_queue?&lt;span style=&quot;color: rgba(0 , 0 , 0 , 0) ; font-family: monospace ; font-size: 0px&quot;&gt;nuu%3CmxGraphModel%3E%3Croot%3E%3CmxCell%20id%3D%220%22%2F%3E%3CmxCell%20id%3D%221%22%20parent%3D%220%22%2F%3E%3CmxCell%20id%3D%222%22%20value%3D%22check%20running%26lt%3Bbr%26gt%3Bstate%22%20style%3D%22rhombus%3BwhiteSpace%3Dwrap%3Bhtml%3D1%3B%22%20vertex%3D%221%22%20parent%3D%221%22%3E%3CmxGeometry%20x%3D%22300%22%20y%3D%22660%22%20width%3D%22138.12%22%20height%3D%2247.5%22%20as%3D%22geometry%22%2F%3E%3C%2FmxCell%3E%3C%2Froot%3E%3C%2FmxGraphModel%3E&lt;/span&gt;&lt;span style=&quot;color: rgba(0 , 0 , 0 , 0) ; font-family: monospace ; font-size: 0px&quot;&gt;%3CmxGraphModel%3E%3Croot%3E%3CmxCell%20id%3D%220%22%2F%3E%3CmxCell%20id%3D%221%22%20parent%3D%220%22%2F%3E%3CmxCell%20id%3D%222%22%20value%3D%22check%20running%26lt%3Bbr%26gt%3Bstate%22%20style%3D%22rhombus%3BwhiteSpace%3Dwrap%3Bhtml%3D1%3B%22%20vertex%3D%221%22%20parent%3D%221%22%3E%3CmxGeometry%20x%3D%22300%22%20y%3D%22660%22%20width%3D%22138.12%22%20height%3D%2247.5%22%20as%3D%22geometry%22%2F%3E%3C%2FmxCell%3E%3C%2Froot%3E%3C%2FmxGraphModel%3E&lt;/span&gt;&lt;span style=&quot;color: rgba(0 , 0 , 0 , 0) ; font-family: monospace ; font-size: 0px&quot;&gt;%3CmxGraphModel%3E%3Croot%3E%3CmxCell%20id%3D%220%22%2F%3E%3CmxCell%20id%3D%221%22%20parent%3D%220%22%2F%3E%3CmxCell%20id%3D%222%22%20value%3D%22check%20running%26lt%3Bbr%26gt%3Bstate%22%20style%3D%22rhombus%3BwhiteSpace%3Dwrap%3Bhtml%3D1%3B%22%20vertex%3D%221%22%20parent%3D%221%22%3E%3CmxGeometry%20x%3D%22300%22%20y%3D%22660%22%20width%3D%22138.12%22%20height%3D%2247.5%22%20as%3D%22geometry%22%2F%3E%3C%2FmxCell%3E%3C%2Froot%3E%3C%2FmxGraphModel%3Es&lt;br&gt;asd&lt;/span&gt;" style="rhombus;whiteSpace=wrap;html=1;" parent="sZ3u7BNd2FGb5M5X52Cd-1" vertex="1">
          <mxGeometry x="265.8000000000001" y="782.5" width="138.12" height="47.5" as="geometry" />
        </mxCell>
        <mxCell id="Wbn9vYfk1FPGFbjwdXey-192" style="edgeStyle=orthogonalEdgeStyle;rounded=0;orthogonalLoop=1;jettySize=auto;html=1;exitX=0.5;exitY=1;exitDx=0;exitDy=0;entryX=0.5;entryY=0;entryDx=0;entryDy=0;strokeColor=#000000;" parent="sZ3u7BNd2FGb5M5X52Cd-1" source="Wbn9vYfk1FPGFbjwdXey-190" target="Wbn9vYfk1FPGFbjwdXey-119" edge="1">
          <mxGeometry relative="1" as="geometry" />
        </mxCell>
        <mxCell id="Wbn9vYfk1FPGFbjwdXey-190" value="pop all to perform" style="whiteSpace=wrap;html=1;" parent="sZ3u7BNd2FGb5M5X52Cd-1" vertex="1">
          <mxGeometry x="274.86000000000007" y="860" width="120" height="25" as="geometry" />
        </mxCell>
      </root>
    </mxGraphModel>
  </diagram>
</mxfile>
